<?xml version="1.0" encoding="UTF-8" standalone="no"?>
<!DOCTYPE svg PUBLIC "-//W3C//DTD SVG 1.1//EN" "http://www.w3.org/Graphics/SVG/1.1/DTD/svg11.dtd">
<svg xmlns="http://www.w3.org/2000/svg" version="1.1" viewBox="0.00 0.00 256.00 256.00">
<g stroke-width="2.00" fill="none" stroke-linecap="butt">
<path stroke="#800000" vector-effect="non-scaling-stroke" d="
  M 126.03 42.11
  L 125.98 40.74
  Q 125.96 40.10 125.32 40.06
  L 123.21 39.93
  Q 122.65 39.90 122.20 39.56
  L 120.60 38.33
  A 1.64 1.64 0.0 0 0 118.44 38.49
  L 116.25 40.73
  A 0.81 0.80 68.9 0 0 116.03 41.23
  Q 115.92 44.28 112.74 43.97
  Q 112.00 43.90 112.00 44.64
  L 112.00 45.84
  A 0.89 0.89 0.0 0 1 111.52 46.63
  Q 110.00 47.40 109.83 49.12
  Q 109.78 49.60 109.42 49.92
  C 102.67 56.06 96.59 62.38 90.80 69.43
  Q 85.40 76.00 77.53 79.60
  Q 77.09 79.80 76.99 80.27
  L 76.63 82.01
  Q 76.52 82.50 76.03 82.60
  Q 72.90 83.18 70.27 85.04
  A 0.56 0.56 0.0 0 0 70.69 86.05
  Q 74.26 85.40 77.46 83.97
  C 80.45 82.63 83.43 82.47 86.58 81.97
  C 96.53 80.40 95.39 93.04 94.89 98.76
  A 1.31 1.31 0.0 0 0 97.22 99.70
  Q 99.41 96.95 102.97 96.94
  Q 103.48 96.94 103.71 96.49
  L 105.22 93.61
  Q 105.50 93.08 105.99 92.75
  Q 109.62 90.34 112.19 86.84
  A 1.55 1.53 8.1 0 1 112.96 86.27
  Q 118.10 84.45 118.78 89.11
  A 0.79 0.78 -88.5 0 0 119.40 89.77
  L 121.55 90.21
  Q 122.06 90.31 122.33 90.74
  Q 125.52 95.68 129.85 99.54
  A 1.99 1.98 44.9 0 0 132.50 99.54
  L 135.59 96.79
  Q 135.84 96.57 135.89 96.25
  Q 136.71 91.06 139.21 86.47
  A 0.89 0.88 -75.9 0 1 139.99 86.00
  L 150.06 86.00
  Q 150.71 86.00 150.89 86.62
  Q 151.44 88.45 153.05 89.60
  Q 153.49 89.92 154.04 89.92
  C 158.87 89.89 163.39 91.73 167.79 91.37
  C 172.94 90.94 176.87 89.48 178.47 84.22
  A 0.56 0.55 -70.5 0 0 178.15 83.54
  Q 176.43 82.83 175.77 81.15
  Q 175.58 80.66 175.10 80.44
  C 168.45 77.45 165.05 70.72 158.59 68.79
  Q 158.00 68.61 158.00 68.00
  L 158.00 66.50
  A 0.76 0.75 -81.0 0 0 157.48 65.78
  Q 155.45 65.13 154.62 63.24
  A 0.88 0.86 79.1 0 0 153.88 62.73
  Q 150.83 62.53 150.94 59.50
  Q 150.96 59.00 150.52 58.78
  L 142.60 54.79
  Q 142.10 54.54 141.87 54.02
  L 140.76 51.50
  Q 140.54 51.00 140.00 51.00
  L 138.28 51.00
  A 1.00 0.99 71.1 0 1 137.49 50.61
  Q 134.99 47.31 131.11 45.94
  Q 130.57 45.74 130.20 45.29
  Q 128.78 43.54 126.60 42.86
  A 0.82 0.81 -82.5 0 1 126.03 42.11"
/>
<path stroke="#020080" vector-effect="non-scaling-stroke" d="
  M 126.29 107.62
  L 125.82 105.78
  Q 125.67 105.20 125.19 104.84
  Q 123.02 103.19 121.81 100.69
  Q 121.57 100.20 121.03 100.09
  C 118.70 99.63 118.44 96.44 115.39 95.45
  Q 114.87 95.29 114.42 95.59
  Q 111.89 97.26 109.87 99.53
  C 108.97 100.54 108.59 102.56 107.02 103.09
  Q 102.13 104.76 99.17 107.66
  A 1.24 1.22 -66.2 0 1 98.29 108.01
  C 95.95 107.97 92.27 108.48 90.37 107.30
  C 85.69 104.40 90.59 89.04 85.49 89.40
  Q 81.69 89.67 78.07 93.09
  C 76.79 94.30 76.83 96.06 74.74 96.78
  Q 74.26 96.94 73.92 97.31
  Q 64.91 106.91 56.04 116.65
  C 54.92 117.88 53.49 118.10 52.43 119.58
  C 50.71 122.00 49.26 123.51 47.67 125.54
  Q 47.37 125.92 46.93 126.13
  Q 45.76 126.68 45.60 127.97
  A 0.57 0.57 0.0 0 0 46.05 128.60
  Q 56.73 130.72 67.49 128.95
  C 71.49 128.29 72.85 131.04 73.27 134.40
  Q 73.33 134.91 73.63 135.34
  Q 75.90 138.59 76.25 142.60
  A 1.58 1.58 0.0 0 0 78.07 144.03
  Q 81.25 143.56 83.39 145.74
  Q 83.74 146.10 84.21 145.91
  Q 86.89 144.84 89.52 143.60
  C 93.24 141.85 96.19 138.96 99.42 136.35
  Q 99.81 136.03 100.32 136.07
  Q 103.60 136.38 104.43 133.28
  A 1.28 1.25 86.2 0 1 105.14 132.45
  Q 110.45 130.08 115.77 132.35
  A 1.48 1.47 -1.1 0 1 116.53 133.08
  L 117.46 135.13
  Q 117.66 135.59 118.16 135.66
  C 122.69 136.35 124.68 141.18 128.70 143.04
  C 137.19 146.97 141.58 139.53 144.67 132.99
  A 1.73 1.72 -77.2 0 1 146.23 132.00
  L 155.42 132.00
  Q 156.06 132.00 156.31 132.59
  L 157.48 135.34
  A 0.70 0.68 -5.4 0 0 157.99 135.75
  Q 161.41 136.34 164.40 138.00
  C 166.64 139.24 168.05 139.24 170.42 138.96
  Q 171.09 138.88 171.51 139.41
  L 172.42 140.54
  A 1.66 1.65 -59.5 0 0 175.34 139.78
  C 175.97 136.15 175.16 125.03 181.25 125.02
  Q 190.84 125.01 200.31 124.99
  A 0.62 0.61 63.1 0 0 200.67 123.88
  C 199.70 123.17 198.71 122.25 198.09 121.11
  Q 194.56 114.64 189.15 109.60
  C 187.15 107.74 175.43 97.01 173.25 97.70
  C 165.54 100.16 160.36 97.90 153.30 96.97
  C 150.59 96.61 148.94 95.33 147.43 93.29
  A 1.84 1.84 0.0 0 0 144.13 94.09
  Q 143.55 97.67 141.39 100.49
  A 1.95 1.88 -22.2 0 0 141.03 101.31
  L 140.71 103.26
  Q 140.62 103.80 140.06 103.82
  Q 136.87 103.93 136.90 107.17
  A 0.74 0.74 0.0 0 1 136.17 107.91
  L 126.82 108.02
  A 0.55 0.54 -7.6 0 1 126.29 107.62"
/>
<path stroke="#00801a" vector-effect="non-scaling-stroke" d="
  M 80.14 153.45
  C 79.61 151.29 73.51 150.19 71.38 149.10
  Q 70.92 148.86 70.73 148.38
  C 69.19 144.52 68.24 140.87 65.84 137.42
  A 0.99 0.97 -16.9 0 0 65.03 137.00
  L 57.30 137.00
  Q 56.63 137.00 56.28 137.58
  L 54.73 140.16
  Q 54.50 140.55 54.12 140.81
  Q 49.85 143.73 48.54 148.71
  Q 48.42 149.13 48.05 149.37
  L 45.70 150.86
  Q 45.22 151.16 45.17 151.72
  C 45.00 153.49 44.66 154.66 43.39 156.06
  Q 39.85 159.94 37.93 165.09
  A 0.75 0.75 0.0 0 0 38.77 166.09
  Q 41.08 165.67 42.13 167.36
  Q 42.50 167.97 43.22 167.97
  L 62.04 168.01
  Q 62.58 168.02 62.89 168.46
  Q 65.59 172.42 66.09 177.19
  Q 66.15 177.79 66.72 178.00
  L 68.08 178.52
  Q 68.58 178.70 68.68 179.22
  Q 69.22 181.98 70.73 184.35
  Q 71.02 184.80 71.55 184.85
  L 74.09 185.10
  Q 74.68 185.15 74.92 185.70
  C 78.45 193.78 87.10 186.36 91.19 184.01
  Q 93.70 182.57 96.21 181.08
  Q 96.68 180.80 96.88 180.29
  Q 97.87 177.70 100.70 178.02
  A 1.07 1.05 25.1 0 0 101.58 177.71
  Q 107.33 171.95 114.79 174.50
  C 117.25 175.35 119.04 177.61 121.98 178.54
  A 1.15 1.14 2.4 0 1 122.74 179.36
  L 123.18 181.21
  Q 123.29 181.67 123.72 181.86
  Q 128.17 183.84 132.55 181.69
  Q 133.00 181.46 133.00 180.96
  L 133.00 179.98
  Q 133.00 179.44 133.50 179.24
  C 135.89 178.28 137.78 176.30 139.70 175.41
  Q 145.96 172.50 152.51 174.80
  C 155.21 175.74 157.28 178.07 160.29 179.30
  Q 160.75 179.49 160.96 179.95
  C 162.37 183.09 172.36 183.47 171.96 178.86
  A 0.55 0.55 0.0 0 1 172.38 178.28
  L 174.29 177.84
  Q 174.69 177.75 174.87 177.37
  L 178.96 168.50
  A 0.86 0.86 0.0 0 1 179.74 168.00
  L 208.99 168.00
  Q 209.52 168.00 209.76 167.53
  Q 211.28 164.51 214.51 163.24
  A 0.71 0.71 0.0 0 0 214.93 162.42
  L 213.75 157.61
  A 1.07 1.06 -89.1 0 0 213.02 156.85
  Q 210.86 156.22 211.12 153.95
  Q 211.18 153.40 210.89 152.92
  Q 206.08 145.01 197.46 141.70
  A 1.57 1.55 -4.3 0 1 196.64 141.00
  Q 196.12 140.08 195.45 139.26
  Q 195.12 138.85 194.62 138.68
  C 191.79 137.74 188.32 137.07 189.07 132.99
  A 0.84 0.84 0.0 0 0 188.24 132.00
  L 183.50 132.00
  Q 183.00 132.00 183.00 132.50
  L 183.00 140.81
  A 1.72 1.69 64.4 0 1 182.64 141.86
  Q 181.44 143.36 179.63 144.15
  Q 179.06 144.40 178.85 144.97
  L 177.90 147.55
  A 0.87 0.86 10.4 0 1 177.07 148.12
  L 170.17 148.02
  Q 169.46 148.01 169.10 147.39
  L 168.50 146.34
  A 0.85 0.85 0.0 0 0 167.66 145.92
  C 162.40 146.52 157.63 143.29 153.14 140.97
  C 152.12 140.45 152.01 139.77 151.29 139.16
  A 1.30 1.29 32.8 0 0 149.29 139.59
  Q 147.98 142.35 145.52 144.27
  Q 145.11 144.60 144.93 145.09
  C 142.63 151.49 135.15 151.52 129.44 150.81
  Q 124.65 150.22 122.65 146.67
  A 0.95 0.95 0.0 0 0 121.86 146.19
  C 119.69 146.13 112.76 139.76 111.20 138.40
  A 0.99 0.99 0.0 0 0 109.90 138.41
  Q 104.74 142.94 98.68 146.19
  A 1.73 1.66 -88.7 0 0 97.97 146.90
  C 96.42 149.76 94.10 149.69 91.25 150.31
  A 1.58 1.54 10.0 0 0 90.31 150.95
  L 88.52 153.62
  Q 88.16 154.17 87.49 154.16
  L 80.80 153.98
  Q 80.26 153.97 80.14 153.45"
/>
<path stroke="#482c1f" vector-effect="non-scaling-stroke" d="
  M 118.85 214.01
  L 150.78 214.00
  A 1.01 1.00 -72.8 0 0 151.61 213.56
  Q 153.52 210.79 156.79 209.66
  A 2.17 2.17 0.0 0 0 158.10 206.79
  Q 153.94 196.52 155.17 185.42
  Q 155.23 184.86 154.73 184.58
  C 146.91 180.28 145.01 180.10 137.55 185.47
  A 1.34 1.29 78.2 0 0 137.04 186.28
  Q 136.65 188.27 135.36 188.81
  Q 127.37 192.14 119.07 187.71"
/>
<path stroke="#331d1a" vector-effect="non-scaling-stroke" d="
  M 119.07 187.71
  C 115.10 181.32 111.03 179.18 104.43 184.16
  Q 100.29 187.28 95.53 190.31
  A 0.97 0.95 71.4 0 0 95.10 191.20
  Q 95.88 198.86 94.89 205.99
  C 94.37 209.77 97.89 211.77 100.93 212.44
  Q 101.40 212.55 101.74 212.90
  C 103.15 214.39 115.86 214.00 118.85 214.01"
/>
<path stroke="#7b4839" vector-effect="non-scaling-stroke" d="
  M 119.07 187.71
  L 118.85 214.01"
/>
<path stroke="#331d1a" vector-effect="non-scaling-stroke" d="
  M 106.39 204.69
  C 114.02 207.05 112.04 194.80 111.97 190.95
  A 1.58 1.58 0.0 0 0 110.80 189.45
  C 102.87 187.33 105.02 198.80 105.01 202.80
  A 1.97 1.96 -81.2 0 0 106.39 204.69"
/>
<path stroke="#482c1f" vector-effect="non-scaling-stroke" d="
  M 147.74 196.00
  C 147.51 194.86 145.56 194.02 144.97 192.83
  A 1.71 1.71 0.0 0 0 141.91 192.82
  C 139.99 196.65 140.04 209.32 146.13 210.11
  A 2.24 2.24 0.0 0 0 148.66 208.02
  Q 148.99 202.21 147.74 196.00"
/>
</g>
<path fill="#000000" d="
  M 198.72 132.88
  Q 199.89 133.15 200.75 133.99
  C 203.48 136.70 206.77 137.52 209.34 140.37
  C 212.85 144.27 218.10 146.71 218.03 153.12
  A 0.90 0.90 0.0 0 0 218.39 153.84
  L 220.64 155.48
  A 1.82 1.79 -82.7 0 1 221.25 156.28
  Q 223.37 161.70 220.85 167.02
  Q 220.61 167.53 220.13 167.81
  Q 218.57 168.70 217.82 170.35
  A 0.90 0.89 -78.7 0 1 217.04 170.88
  Q 214.89 170.98 214.78 173.18
  Q 214.75 173.78 214.18 173.97
  Q 211.24 174.95 208.26 174.96
  Q 196.64 174.98 185.47 175.02
  A 2.33 2.32 -78.9 0 0 183.32 176.47
  L 181.55 180.83
  Q 181.40 181.20 181.05 181.38
  Q 177.68 183.09 175.76 186.26
  C 173.39 190.18 166.75 189.03 163.19 188.99
  Q 161.42 188.98 161.68 190.73
  C 163.02 199.83 168.34 208.18 161.66 216.56
  Q 161.35 216.95 160.86 216.97
  L 158.50 217.07
  A 0.57 0.57 0.0 0 0 157.95 217.70
  C 158.17 219.93 157.25 220.96 154.99 220.97
  Q 127.38 221.11 99.80 220.88
  C 97.77 220.86 96.32 220.00 95.66 218.16
  Q 95.48 217.67 95.00 217.50
  C 91.53 216.27 88.27 216.39 88.04 211.53
  Q 87.67 203.81 88.50 196.17
  Q 88.55 195.73 88.11 195.74
  L 74.81 196.31
  A 1.33 1.31 66.9 0 1 73.78 195.89
  L 70.23 192.15
  Q 69.82 191.72 69.24 191.58
  C 64.09 190.35 63.85 186.97 62.00 182.70
  Q 61.78 182.20 61.25 182.06
  C 56.73 180.88 61.32 175.35 56.51 175.20
  C 50.69 175.03 42.26 175.93 36.91 173.98
  A 1.27 1.24 -0.8 0 1 36.17 173.28
  Q 35.10 170.78 32.26 170.87
  Q 31.74 170.89 31.39 170.51
  C 28.42 167.25 31.17 159.73 34.06 156.83
  Q 38.23 152.64 39.09 146.51
  A 0.57 0.57 0.0 0 1 39.63 146.03
  L 40.66 145.99
  Q 41.24 145.97 41.49 145.45
  Q 43.28 141.71 46.12 138.60
  Q 46.42 138.26 46.84 138.11
  Q 48.06 137.66 48.79 136.63
  A 0.43 0.43 0.0 0 0 48.38 135.95
  Q 45.75 136.28 43.28 135.49
  Q 42.73 135.32 42.44 134.82
  Q 41.39 132.94 39.22 132.64
  A 0.92 0.92 0.0 0 1 38.47 132.04
  Q 37.32 128.91 38.26 125.65
  Q 38.40 125.18 38.77 124.88
  Q 42.59 121.76 44.78 117.29
  C 45.49 115.83 46.42 115.18 47.85 114.73
  Q 48.32 114.58 48.53 114.14
  Q 50.22 110.53 54.09 109.13
  Q 54.63 108.94 54.97 108.49
  Q 55.98 107.21 56.30 105.62
  Q 56.41 105.07 56.88 104.75
  L 58.65 103.53
  A 1.61 1.61 0.0 0 0 59.30 102.63
  C 59.79 100.87 66.28 95.70 67.71 94.49
  A 0.91 0.90 19.7 0 0 66.96 92.91
  Q 63.06 93.65 59.89 91.34
  Q 59.46 91.03 59.30 90.52
  C 57.68 85.35 61.18 84.56 63.55 81.56
  Q 64.57 80.26 65.58 78.98
  Q 65.93 78.55 66.45 78.37
  Q 69.67 77.24 72.35 75.12
  Q 72.68 74.85 72.77 74.44
  L 73.13 72.74
  Q 73.23 72.22 73.76 72.13
  Q 78.26 71.38 80.91 68.90
  Q 86.81 63.38 99.63 50.13
  C 101.99 47.70 103.48 44.90 105.49 42.06
  Q 106.29 40.93 108.34 39.37
  Q 111.31 37.10 112.39 33.38
  Q 112.54 32.84 113.10 32.95
  Q 115.93 33.52 118.00 31.60
  A 3.56 3.55 -51.2 0 1 122.19 31.14
  Q 125.23 32.90 128.74 33.21
  Q 129.30 33.26 129.45 33.80
  L 130.01 35.89
  Q 130.16 36.45 130.65 36.77
  L 142.88 44.73
  Q 143.39 45.06 143.70 45.60
  Q 144.59 47.19 146.55 47.15
  Q 147.04 47.14 147.38 47.48
  Q 149.96 50.12 152.86 52.26
  C 155.77 54.39 157.23 57.37 160.72 59.16
  Q 161.18 59.39 161.44 59.82
  Q 163.90 63.77 168.36 65.36
  Q 168.78 65.51 168.96 65.92
  Q 170.95 70.65 175.88 71.91
  Q 176.40 72.04 176.72 72.47
  C 180.79 77.86 188.71 79.89 185.47 89.03
  Q 185.33 89.43 184.93 89.59
  Q 183.05 90.30 182.30 92.12
  Q 182.11 92.60 182.34 93.06
  Q 183.49 95.32 185.07 96.44
  Q 190.23 100.10 194.02 104.44
  C 198.77 109.87 201.89 113.11 205.11 117.99
  C 208.32 122.83 210.74 125.35 207.83 130.46
  Q 207.52 131.00 206.91 131.09
  L 198.75 132.27
  A 0.31 0.31 0.0 0 0 198.72 132.88
  Z
  M 126.03 42.11
  L 125.98 40.74
  Q 125.96 40.10 125.32 40.06
  L 123.21 39.93
  Q 122.65 39.90 122.20 39.56
  L 120.60 38.33
  A 1.64 1.64 0.0 0 0 118.44 38.49
  L 116.25 40.73
  A 0.81 0.80 68.9 0 0 116.03 41.23
  Q 115.92 44.28 112.74 43.97
  Q 112.00 43.90 112.00 44.64
  L 112.00 45.84
  A 0.89 0.89 0.0 0 1 111.52 46.63
  Q 110.00 47.40 109.83 49.12
  Q 109.78 49.60 109.42 49.92
  C 102.67 56.06 96.59 62.38 90.80 69.43
  Q 85.40 76.00 77.53 79.60
  Q 77.09 79.80 76.99 80.27
  L 76.63 82.01
  Q 76.52 82.50 76.03 82.60
  Q 72.90 83.18 70.27 85.04
  A 0.56 0.56 0.0 0 0 70.69 86.05
  Q 74.26 85.40 77.46 83.97
  C 80.45 82.63 83.43 82.47 86.58 81.97
  C 96.53 80.40 95.39 93.04 94.89 98.76
  A 1.31 1.31 0.0 0 0 97.22 99.70
  Q 99.41 96.95 102.97 96.94
  Q 103.48 96.94 103.71 96.49
  L 105.22 93.61
  Q 105.50 93.08 105.99 92.75
  Q 109.62 90.34 112.19 86.84
  A 1.55 1.53 8.1 0 1 112.96 86.27
  Q 118.10 84.45 118.78 89.11
  A 0.79 0.78 -88.5 0 0 119.40 89.77
  L 121.55 90.21
  Q 122.06 90.31 122.33 90.74
  Q 125.52 95.68 129.85 99.54
  A 1.99 1.98 44.9 0 0 132.50 99.54
  L 135.59 96.79
  Q 135.84 96.57 135.89 96.25
  Q 136.71 91.06 139.21 86.47
  A 0.89 0.88 -75.9 0 1 139.99 86.00
  L 150.06 86.00
  Q 150.71 86.00 150.89 86.62
  Q 151.44 88.45 153.05 89.60
  Q 153.49 89.92 154.04 89.92
  C 158.87 89.89 163.39 91.73 167.79 91.37
  C 172.94 90.94 176.87 89.48 178.47 84.22
  A 0.56 0.55 -70.5 0 0 178.15 83.54
  Q 176.43 82.83 175.77 81.15
  Q 175.58 80.66 175.10 80.44
  C 168.45 77.45 165.05 70.72 158.59 68.79
  Q 158.00 68.61 158.00 68.00
  L 158.00 66.50
  A 0.76 0.75 -81.0 0 0 157.48 65.78
  Q 155.45 65.13 154.62 63.24
  A 0.88 0.86 79.1 0 0 153.88 62.73
  Q 150.83 62.53 150.94 59.50
  Q 150.96 59.00 150.52 58.78
  L 142.60 54.79
  Q 142.10 54.54 141.87 54.02
  L 140.76 51.50
  Q 140.54 51.00 140.00 51.00
  L 138.28 51.00
  A 1.00 0.99 71.1 0 1 137.49 50.61
  Q 134.99 47.31 131.11 45.94
  Q 130.57 45.74 130.20 45.29
  Q 128.78 43.54 126.60 42.86
  A 0.82 0.81 -82.5 0 1 126.03 42.11
  Z
  M 126.29 107.62
  L 125.82 105.78
  Q 125.67 105.20 125.19 104.84
  Q 123.02 103.19 121.81 100.69
  Q 121.57 100.20 121.03 100.09
  C 118.70 99.63 118.44 96.44 115.39 95.45
  Q 114.87 95.29 114.42 95.59
  Q 111.89 97.26 109.87 99.53
  C 108.97 100.54 108.59 102.56 107.02 103.09
  Q 102.13 104.76 99.17 107.66
  A 1.24 1.22 -66.2 0 1 98.29 108.01
  C 95.95 107.97 92.27 108.48 90.37 107.30
  C 85.69 104.40 90.59 89.04 85.49 89.40
  Q 81.69 89.67 78.07 93.09
  C 76.79 94.30 76.83 96.06 74.74 96.78
  Q 74.26 96.94 73.92 97.31
  Q 64.91 106.91 56.04 116.65
  C 54.92 117.88 53.49 118.10 52.43 119.58
  C 50.71 122.00 49.26 123.51 47.67 125.54
  Q 47.37 125.92 46.93 126.13
  Q 45.76 126.68 45.60 127.97
  A 0.57 0.57 0.0 0 0 46.05 128.60
  Q 56.73 130.72 67.49 128.95
  C 71.49 128.29 72.85 131.04 73.27 134.40
  Q 73.33 134.91 73.63 135.34
  Q 75.90 138.59 76.25 142.60
  A 1.58 1.58 0.0 0 0 78.07 144.03
  Q 81.25 143.56 83.39 145.74
  Q 83.74 146.10 84.21 145.91
  Q 86.89 144.84 89.52 143.60
  C 93.24 141.85 96.19 138.96 99.42 136.35
  Q 99.81 136.03 100.32 136.07
  Q 103.60 136.38 104.43 133.28
  A 1.28 1.25 86.2 0 1 105.14 132.45
  Q 110.45 130.08 115.77 132.35
  A 1.48 1.47 -1.1 0 1 116.53 133.08
  L 117.46 135.13
  Q 117.66 135.59 118.16 135.66
  C 122.69 136.35 124.68 141.18 128.70 143.04
  C 137.19 146.97 141.58 139.53 144.67 132.99
  A 1.73 1.72 -77.2 0 1 146.23 132.00
  L 155.42 132.00
  Q 156.06 132.00 156.31 132.59
  L 157.48 135.34
  A 0.70 0.68 -5.4 0 0 157.99 135.75
  Q 161.41 136.34 164.40 138.00
  C 166.64 139.24 168.05 139.24 170.42 138.96
  Q 171.09 138.88 171.51 139.41
  L 172.42 140.54
  A 1.66 1.65 -59.5 0 0 175.34 139.78
  C 175.97 136.15 175.16 125.03 181.25 125.02
  Q 190.84 125.01 200.31 124.99
  A 0.62 0.61 63.1 0 0 200.67 123.88
  C 199.70 123.17 198.71 122.25 198.09 121.11
  Q 194.56 114.64 189.15 109.60
  C 187.15 107.74 175.43 97.01 173.25 97.70
  C 165.54 100.16 160.36 97.90 153.30 96.97
  C 150.59 96.61 148.94 95.33 147.43 93.29
  A 1.84 1.84 0.0 0 0 144.13 94.09
  Q 143.55 97.67 141.39 100.49
  A 1.95 1.88 -22.2 0 0 141.03 101.31
  L 140.71 103.26
  Q 140.62 103.80 140.06 103.82
  Q 136.87 103.93 136.90 107.17
  A 0.74 0.74 0.0 0 1 136.17 107.91
  L 126.82 108.02
  A 0.55 0.54 -7.6 0 1 126.29 107.62
  Z
  M 80.14 153.45
  C 79.61 151.29 73.51 150.19 71.38 149.10
  Q 70.92 148.86 70.73 148.38
  C 69.19 144.52 68.24 140.87 65.84 137.42
  A 0.99 0.97 -16.9 0 0 65.03 137.00
  L 57.30 137.00
  Q 56.63 137.00 56.28 137.58
  L 54.73 140.16
  Q 54.50 140.55 54.12 140.81
  Q 49.85 143.73 48.54 148.71
  Q 48.42 149.13 48.05 149.37
  L 45.70 150.86
  Q 45.22 151.16 45.17 151.72
  C 45.00 153.49 44.66 154.66 43.39 156.06
  Q 39.85 159.94 37.93 165.09
  A 0.75 0.75 0.0 0 0 38.77 166.09
  Q 41.08 165.67 42.13 167.36
  Q 42.50 167.97 43.22 167.97
  L 62.04 168.01
  Q 62.58 168.02 62.89 168.46
  Q 65.59 172.42 66.09 177.19
  Q 66.15 177.79 66.72 178.00
  L 68.08 178.52
  Q 68.58 178.70 68.68 179.22
  Q 69.22 181.98 70.73 184.35
  Q 71.02 184.80 71.55 184.85
  L 74.09 185.10
  Q 74.68 185.15 74.92 185.70
  C 78.45 193.78 87.10 186.36 91.19 184.01
  Q 93.70 182.57 96.21 181.08
  Q 96.68 180.80 96.88 180.29
  Q 97.87 177.70 100.70 178.02
  A 1.07 1.05 25.1 0 0 101.58 177.71
  Q 107.33 171.95 114.79 174.50
  C 117.25 175.35 119.04 177.61 121.98 178.54
  A 1.15 1.14 2.4 0 1 122.74 179.36
  L 123.18 181.21
  Q 123.29 181.67 123.72 181.86
  Q 128.17 183.84 132.55 181.69
  Q 133.00 181.46 133.00 180.96
  L 133.00 179.98
  Q 133.00 179.44 133.50 179.24
  C 135.89 178.28 137.78 176.30 139.70 175.41
  Q 145.96 172.50 152.51 174.80
  C 155.21 175.74 157.28 178.07 160.29 179.30
  Q 160.75 179.49 160.96 179.95
  C 162.37 183.09 172.36 183.47 171.96 178.86
  A 0.55 0.55 0.0 0 1 172.38 178.28
  L 174.29 177.84
  Q 174.69 177.75 174.87 177.37
  L 178.96 168.50
  A 0.86 0.86 0.0 0 1 179.74 168.00
  L 208.99 168.00
  Q 209.52 168.00 209.76 167.53
  Q 211.28 164.51 214.51 163.24
  A 0.71 0.71 0.0 0 0 214.93 162.42
  L 213.75 157.61
  A 1.07 1.06 -89.1 0 0 213.02 156.85
  Q 210.86 156.22 211.12 153.95
  Q 211.18 153.40 210.89 152.92
  Q 206.08 145.01 197.46 141.70
  A 1.57 1.55 -4.3 0 1 196.64 141.00
  Q 196.12 140.08 195.45 139.26
  Q 195.12 138.85 194.62 138.68
  C 191.79 137.74 188.32 137.07 189.07 132.99
  A 0.84 0.84 0.0 0 0 188.24 132.00
  L 183.50 132.00
  Q 183.00 132.00 183.00 132.50
  L 183.00 140.81
  A 1.72 1.69 64.4 0 1 182.64 141.86
  Q 181.44 143.36 179.63 144.15
  Q 179.06 144.40 178.85 144.97
  L 177.90 147.55
  A 0.87 0.86 10.4 0 1 177.07 148.12
  L 170.17 148.02
  Q 169.46 148.01 169.10 147.39
  L 168.50 146.34
  A 0.85 0.85 0.0 0 0 167.66 145.92
  C 162.40 146.52 157.63 143.29 153.14 140.97
  C 152.12 140.45 152.01 139.77 151.29 139.16
  A 1.30 1.29 32.8 0 0 149.29 139.59
  Q 147.98 142.35 145.52 144.27
  Q 145.11 144.60 144.93 145.09
  C 142.63 151.49 135.15 151.52 129.44 150.81
  Q 124.65 150.22 122.65 146.67
  A 0.95 0.95 0.0 0 0 121.86 146.19
  C 119.69 146.13 112.76 139.76 111.20 138.40
  A 0.99 0.99 0.0 0 0 109.90 138.41
  Q 104.74 142.94 98.68 146.19
  A 1.73 1.66 -88.7 0 0 97.97 146.90
  C 96.42 149.76 94.10 149.69 91.25 150.31
  A 1.58 1.54 10.0 0 0 90.31 150.95
  L 88.52 153.62
  Q 88.16 154.17 87.49 154.16
  L 80.80 153.98
  Q 80.26 153.97 80.14 153.45
  Z
  M 118.85 214.01
  L 150.78 214.00
  A 1.01 1.00 -72.8 0 0 151.61 213.56
  Q 153.52 210.79 156.79 209.66
  A 2.17 2.17 0.0 0 0 158.10 206.79
  Q 153.94 196.52 155.17 185.42
  Q 155.23 184.86 154.73 184.58
  C 146.91 180.28 145.01 180.10 137.55 185.47
  A 1.34 1.29 78.2 0 0 137.04 186.28
  Q 136.65 188.27 135.36 188.81
  Q 127.37 192.14 119.07 187.71
  C 115.10 181.32 111.03 179.18 104.43 184.16
  Q 100.29 187.28 95.53 190.31
  A 0.97 0.95 71.4 0 0 95.10 191.20
  Q 95.88 198.86 94.89 205.99
  C 94.37 209.77 97.89 211.77 100.93 212.44
  Q 101.40 212.55 101.74 212.90
  C 103.15 214.39 115.86 214.00 118.85 214.01
  Z"
/>
<path fill="#ff0000" d="
  M 126.60 42.86
  Q 128.78 43.54 130.20 45.29
  Q 130.57 45.74 131.11 45.94
  Q 134.99 47.31 137.49 50.61
  A 1.00 0.99 71.1 0 0 138.28 51.00
  L 140.00 51.00
  Q 140.54 51.00 140.76 51.50
  L 141.87 54.02
  Q 142.10 54.54 142.60 54.79
  L 150.52 58.78
  Q 150.96 59.00 150.94 59.50
  Q 150.83 62.53 153.88 62.73
  A 0.88 0.86 79.1 0 1 154.62 63.24
  Q 155.45 65.13 157.48 65.78
  A 0.76 0.75 -81.0 0 1 158.00 66.50
  L 158.00 68.00
  Q 158.00 68.61 158.59 68.79
  C 165.05 70.72 168.45 77.45 175.10 80.44
  Q 175.58 80.66 175.77 81.15
  Q 176.43 82.83 178.15 83.54
  A 0.56 0.55 -70.5 0 1 178.47 84.22
  C 176.87 89.48 172.94 90.94 167.79 91.37
  C 163.39 91.73 158.87 89.89 154.04 89.92
  Q 153.49 89.92 153.05 89.60
  Q 151.44 88.45 150.89 86.62
  Q 150.71 86.00 150.06 86.00
  L 139.99 86.00
  A 0.89 0.88 -75.9 0 0 139.21 86.47
  Q 136.71 91.06 135.89 96.25
  Q 135.84 96.57 135.59 96.79
  L 132.50 99.54
  A 1.99 1.98 44.9 0 1 129.85 99.54
  Q 125.52 95.68 122.33 90.74
  Q 122.06 90.31 121.55 90.21
  L 119.40 89.77
  A 0.79 0.78 -88.5 0 1 118.78 89.11
  Q 118.10 84.45 112.96 86.27
  A 1.55 1.53 8.1 0 0 112.19 86.84
  Q 109.62 90.34 105.99 92.75
  Q 105.50 93.08 105.22 93.61
  L 103.71 96.49
  Q 103.48 96.94 102.97 96.94
  Q 99.41 96.95 97.22 99.70
  A 1.31 1.31 0.0 0 1 94.89 98.76
  C 95.39 93.04 96.53 80.40 86.58 81.97
  C 83.43 82.47 80.45 82.63 77.46 83.97
  Q 74.26 85.40 70.69 86.05
  A 0.56 0.56 0.0 0 1 70.27 85.04
  Q 72.90 83.18 76.03 82.60
  Q 76.52 82.50 76.63 82.01
  L 76.99 80.27
  Q 77.09 79.80 77.53 79.60
  Q 85.40 76.00 90.80 69.43
  C 96.59 62.38 102.67 56.06 109.42 49.92
  Q 109.78 49.60 109.83 49.12
  Q 110.00 47.40 111.52 46.63
  A 0.89 0.89 0.0 0 0 112.00 45.84
  L 112.00 44.64
  Q 112.00 43.90 112.74 43.97
  Q 115.92 44.28 116.03 41.23
  A 0.81 0.80 68.9 0 1 116.25 40.73
  L 118.44 38.49
  A 1.64 1.64 0.0 0 1 120.60 38.33
  L 122.20 39.56
  Q 122.65 39.90 123.21 39.93
  L 125.32 40.06
  Q 125.96 40.10 125.98 40.74
  L 126.03 42.11
  A 0.82 0.81 -82.5 0 0 126.60 42.86
  Z"
/>
<path fill="#0400ff" d="
  M 126.82 108.02
  L 136.17 107.91
  A 0.74 0.74 0.0 0 0 136.90 107.17
  Q 136.87 103.93 140.06 103.82
  Q 140.62 103.80 140.71 103.26
  L 141.03 101.31
  A 1.95 1.88 -22.2 0 1 141.39 100.49
  Q 143.55 97.67 144.13 94.09
  A 1.84 1.84 0.0 0 1 147.43 93.29
  C 148.94 95.33 150.59 96.61 153.30 96.97
  C 160.36 97.90 165.54 100.16 173.25 97.70
  C 175.43 97.01 187.15 107.74 189.15 109.60
  Q 194.56 114.64 198.09 121.11
  C 198.71 122.25 199.70 123.17 200.67 123.88
  A 0.62 0.61 63.1 0 1 200.31 124.99
  Q 190.84 125.01 181.25 125.02
  C 175.16 125.03 175.97 136.15 175.34 139.78
  A 1.66 1.65 -59.5 0 1 172.42 140.54
  L 171.51 139.41
  Q 171.09 138.88 170.42 138.96
  C 168.05 139.24 166.64 139.24 164.40 138.00
  Q 161.41 136.34 157.99 135.75
  A 0.70 0.68 -5.4 0 1 157.48 135.34
  L 156.31 132.59
  Q 156.06 132.00 155.42 132.00
  L 146.23 132.00
  A 1.73 1.72 -77.2 0 0 144.67 132.99
  C 141.58 139.53 137.19 146.97 128.70 143.04
  C 124.68 141.18 122.69 136.35 118.16 135.66
  Q 117.66 135.59 117.46 135.13
  L 116.53 133.08
  A 1.48 1.47 -1.1 0 0 115.77 132.35
  Q 110.45 130.08 105.14 132.45
  A 1.28 1.25 86.2 0 0 104.43 133.28
  Q 103.60 136.38 100.32 136.07
  Q 99.81 136.03 99.42 136.35
  C 96.19 138.96 93.24 141.85 89.52 143.60
  Q 86.89 144.84 84.21 145.91
  Q 83.74 146.10 83.39 145.74
  Q 81.25 143.56 78.07 144.03
  A 1.58 1.58 0.0 0 1 76.25 142.60
  Q 75.90 138.59 73.63 135.34
  Q 73.33 134.91 73.27 134.40
  C 72.85 131.04 71.49 128.29 67.49 128.95
  Q 56.73 130.72 46.05 128.60
  A 0.57 0.57 0.0 0 1 45.60 127.97
  Q 45.76 126.68 46.93 126.13
  Q 47.37 125.92 47.67 125.54
  C 49.26 123.51 50.71 122.00 52.43 119.58
  C 53.49 118.10 54.92 117.88 56.04 116.65
  Q 64.91 106.91 73.92 97.31
  Q 74.26 96.94 74.74 96.78
  C 76.83 96.06 76.79 94.30 78.07 93.09
  Q 81.69 89.67 85.49 89.40
  C 90.59 89.04 85.69 104.40 90.37 107.30
  C 92.27 108.48 95.95 107.97 98.29 108.01
  A 1.24 1.22 -66.2 0 0 99.17 107.66
  Q 102.13 104.76 107.02 103.09
  C 108.59 102.56 108.97 100.54 109.87 99.53
  Q 111.89 97.26 114.42 95.59
  Q 114.87 95.29 115.39 95.45
  C 118.44 96.44 118.70 99.63 121.03 100.09
  Q 121.57 100.20 121.81 100.69
  Q 123.02 103.19 125.19 104.84
  Q 125.67 105.20 125.82 105.78
  L 126.29 107.62
  A 0.55 0.54 -7.6 0 0 126.82 108.02
  Z"
/>
<path fill="#00ff33" d="
  M 80.80 153.98
  L 87.49 154.16
  Q 88.16 154.17 88.52 153.62
  L 90.31 150.95
  A 1.58 1.54 10.0 0 1 91.25 150.31
  C 94.10 149.69 96.42 149.76 97.97 146.90
  A 1.73 1.66 -88.7 0 1 98.68 146.19
  Q 104.74 142.94 109.90 138.41
  A 0.99 0.99 0.0 0 1 111.20 138.40
  C 112.76 139.76 119.69 146.13 121.86 146.19
  A 0.95 0.95 0.0 0 1 122.65 146.67
  Q 124.65 150.22 129.44 150.81
  C 135.15 151.52 142.63 151.49 144.93 145.09
  Q 145.11 144.60 145.52 144.27
  Q 147.98 142.35 149.29 139.59
  A 1.30 1.29 32.8 0 1 151.29 139.16
  C 152.01 139.77 152.12 140.45 153.14 140.97
  C 157.63 143.29 162.40 146.52 167.66 145.92
  A 0.85 0.85 0.0 0 1 168.50 146.34
  L 169.10 147.39
  Q 169.46 148.01 170.17 148.02
  L 177.07 148.12
  A 0.87 0.86 10.4 0 0 177.90 147.55
  L 178.85 144.97
  Q 179.06 144.40 179.63 144.15
  Q 181.44 143.36 182.64 141.86
  A 1.72 1.69 64.4 0 0 183.00 140.81
  L 183.00 132.50
  Q 183.00 132.00 183.50 132.00
  L 188.24 132.00
  A 0.84 0.84 0.0 0 1 189.07 132.99
  C 188.32 137.07 191.79 137.74 194.62 138.68
  Q 195.12 138.85 195.45 139.26
  Q 196.12 140.08 196.64 141.00
  A 1.57 1.55 -4.3 0 0 197.46 141.70
  Q 206.08 145.01 210.89 152.92
  Q 211.18 153.40 211.12 153.95
  Q 210.86 156.22 213.02 156.85
  A 1.07 1.06 -89.1 0 1 213.75 157.61
  L 214.93 162.42
  A 0.71 0.71 0.0 0 1 214.51 163.24
  Q 211.28 164.51 209.76 167.53
  Q 209.52 168.00 208.99 168.00
  L 179.74 168.00
  A 0.86 0.86 0.0 0 0 178.96 168.50
  L 174.87 177.37
  Q 174.69 177.75 174.29 177.84
  L 172.38 178.28
  A 0.55 0.55 0.0 0 0 171.96 178.86
  C 172.36 183.47 162.37 183.09 160.96 179.95
  Q 160.75 179.49 160.29 179.30
  C 157.28 178.07 155.21 175.74 152.51 174.80
  Q 145.96 172.50 139.70 175.41
  C 137.78 176.30 135.89 178.28 133.50 179.24
  Q 133.00 179.44 133.00 179.98
  L 133.00 180.96
  Q 133.00 181.46 132.55 181.69
  Q 128.17 183.84 123.72 181.86
  Q 123.29 181.67 123.18 181.21
  L 122.74 179.36
  A 1.15 1.14 2.4 0 0 121.98 178.54
  C 119.04 177.61 117.25 175.35 114.79 174.50
  Q 107.33 171.95 101.58 177.71
  A 1.07 1.05 25.1 0 1 100.70 178.02
  Q 97.87 177.70 96.88 180.29
  Q 96.68 180.80 96.21 181.08
  Q 93.70 182.57 91.19 184.01
  C 87.10 186.36 78.45 193.78 74.92 185.70
  Q 74.68 185.15 74.09 185.10
  L 71.55 184.85
  Q 71.02 184.80 70.73 184.35
  Q 69.22 181.98 68.68 179.22
  Q 68.58 178.70 68.08 178.52
  L 66.72 178.00
  Q 66.15 177.79 66.09 177.19
  Q 65.59 172.42 62.89 168.46
  Q 62.58 168.02 62.04 168.01
  L 43.22 167.97
  Q 42.50 167.97 42.13 167.36
  Q 41.08 165.67 38.77 166.09
  A 0.75 0.75 0.0 0 1 37.93 165.09
  Q 39.85 159.94 43.39 156.06
  C 44.66 154.66 45.00 153.49 45.17 151.72
  Q 45.22 151.16 45.70 150.86
  L 48.05 149.37
  Q 48.42 149.13 48.54 148.71
  Q 49.85 143.73 54.12 140.81
  Q 54.50 140.55 54.73 140.16
  L 56.28 137.58
  Q 56.63 137.00 57.30 137.00
  L 65.03 137.00
  A 0.99 0.97 -16.9 0 1 65.84 137.42
  C 68.24 140.87 69.19 144.52 70.73 148.38
  Q 70.92 148.86 71.38 149.10
  C 73.51 150.19 79.61 151.29 80.14 153.45
  Q 80.26 153.97 80.80 153.98
  Z"
/>
<path fill="#663934" d="
  M 119.07 187.71
  L 118.85 214.01
  C 115.86 214.00 103.15 214.39 101.74 212.90
  Q 101.40 212.55 100.93 212.44
  C 97.89 211.77 94.37 209.77 94.89 205.99
  Q 95.88 198.86 95.10 191.20
  A 0.97 0.95 71.4 0 1 95.53 190.31
  Q 100.29 187.28 104.43 184.16
  C 111.03 179.18 115.10 181.32 119.07 187.71
  Z
  M 106.39 204.69
  C 114.02 207.05 112.04 194.80 111.97 190.95
  A 1.58 1.58 0.0 0 0 110.80 189.45
  C 102.87 187.33 105.02 198.80 105.01 202.80
  A 1.97 1.96 -81.2 0 0 106.39 204.69
  Z"
/>
<path fill="#8f573e" d="
  M 118.85 214.01
  L 119.07 187.71
  Q 127.37 192.14 135.36 188.81
  Q 136.65 188.27 137.04 186.28
  A 1.34 1.29 78.2 0 1 137.55 185.47
  C 145.01 180.10 146.91 180.28 154.73 184.58
  Q 155.23 184.86 155.17 185.42
  Q 153.94 196.52 158.10 206.79
  A 2.17 2.17 0.0 0 1 156.79 209.66
  Q 153.52 210.79 151.61 213.56
  A 1.01 1.00 -72.8 0 1 150.78 214.00
  L 118.85 214.01
  Z
  M 147.74 196.00
  C 147.51 194.86 145.56 194.02 144.97 192.83
  A 1.71 1.71 0.0 0 0 141.91 192.82
  C 139.99 196.65 140.04 209.32 146.13 210.11
  A 2.24 2.24 0.0 0 0 148.66 208.02
  Q 148.99 202.21 147.74 196.00
  Z"
/>
<path fill="#000000" d="
  M 106.39 204.69
  A 1.97 1.96 -81.2 0 1 105.01 202.80
  C 105.02 198.80 102.87 187.33 110.80 189.45
  A 1.58 1.58 0.0 0 1 111.97 190.95
  C 112.04 194.80 114.02 207.05 106.39 204.69
  Z"
/>
<path fill="#000000" d="
  M 144.97 192.83
  C 145.56 194.02 147.51 194.86 147.74 196.00
  Q 148.99 202.21 148.66 208.02
  A 2.24 2.24 0.0 0 1 146.13 210.11
  C 140.04 209.32 139.99 196.65 141.91 192.82
  A 1.71 1.71 0.0 0 1 144.97 192.83
  Z"
/>
</svg>
